<?xml version="1.0" encoding="UTF-8"?>
<svg height="22.99mm" viewBox="0,0,573.112,81.4484" width="161.75mm" xmlns="http://www.w3.org/2000/svg">
  <defs>
    <linearGradient id="gradient" x1="0%" y1="0%" x2="0%" y2="100%">
      <stop offset="0%" stop-color="#99ddff" />
      <stop offset="50%" stop-color="#99ddff" />
      <!-- <stop offset="100%" stop-color="white" /> -->
      <stop offset="100%" stop-color="#ecf9ff" />
    </linearGradient>
  </defs>
  <path
    d="m459.761 78.2238-2.38757-1.89162-4.07853-.51095c-7.6904-.96351-14.3263-2.03929-17.832-2.89106-2.43264-.59093-2.25637-.1831-2.26233-5.23771v-4.14892h.40344c.22181 0 1.11086.12894 1.9756.28653 7.72255 1.40723 14.395 2.28296 23.1256 3.03516 7.05512.60781 15.9454.78538 19.7574.39459 5.74835-.58926 15.76-2.48126 21.9129-4.1407 8.08709-2.1814 13.4318-4.51614 19.47-8.50493 4.90963-3.24325 7.89258-6.6716 9.10338-10.4623 1.99089-6.2336-.92349-12.4903-8.39485-18.0212-7.59305-5.62124-17.6638-9.17883-30.8071-10.8825-8.32111-1.07868-14.2794-1.43022-22.0623-1.30145-16.8922.27937-29.1792 2.25006-40.923 6.56352-2.79598 1.02696-8.0743 3.5831-10.4772 5.07402-3.71042 2.30198-6.55849 4.88211-8.66262 7.84763-.79307 1.11764-1.33853 1.7519-1.55519 1.8085-.27153.07082-.71367-.20949-2.37089-1.50355-1.12049-.87486-2.82634-2.20169-3.79121-2.9485-.96468-.74685-1.75676-1.4033-1.76013-1.45885-.0119-.19935 1.63656-2.48013 2.79805-3.87076 1.45406-1.74085 4.32059-4.51473 5.96083-5.76778 2.63261-2.01106 5.22671-3.55076 9.69915-5.75699 5.43979-2.68325 7.48576-3.4719 13.7122-5.28594 1.85165-.53944 3.44236-1.06281 3.53506-1.16305 3.22054-3.48509 3.91269-4.17205 4.36644-4.33432.60333-.21575 5.23922-.99424 9.42355-1.58241 8.13254-1.14327 15.1794-1.56708 26.0798-1.56821 9.93516-.00098 15.9366.39727 24.7147 1.64071 7.42859 1.05222 15.6938 3.25317 25.002 6.65826 6.98704 2.55588 13.9224 6.28764 19.2546 10.3606 2.28694 1.74695 6.13531 5.57303 7.43097 7.38792 1.47709 2.06935 2.97769 4.58282 4.411 7.38834 1.95248 3.82183 1.41883 3.62041 9.85537 3.72013l6.39434.07554v7.8014l-13.6506.14184-.66972.45907c-.86394.59227-1.55042 1.39099-2.14024 2.49062-3.98295 7.42424-11.3661 14.5701-20.108 19.4638-5.79807 3.24538-11.0264 5.42267-17.0274 7.09103-9.72644 2.7041-18.0618 4.09403-30.103 5.01914-3.03723.23333-5.48386.29304-14.2972.34895l-10.633.06738-2.38777-1.89163zm-457.252-4.64466c-.06848-1.9153-.54109-64.8678-.52759-70.2352v-1.68993l12.2472.09689c8.46244.06699 12.3849.14615 12.6931.25617l.44611.15922.09528 10.0862c.0526 5.54735.09528 12.6408.09528 15.7631l.0001 5.67686 1.1855 1.1559 1.1854 1.1559 58.7895.09325-.0655-12.4468-.0655-12.4468 1.42022.003c3.77474.0079 9.15012.8375 12.1128 1.86977 1.52223.5304 4.35274 1.91574 5.66626 2.77333 1.97104 1.2869 4.40555 3.85969 6.03131 6.37415 1.39689 2.16042 2.04159 3.82481 2.17132 5.60509.0416.56887.11363 11.6145.16028 24.546l.0854 23.512-27.3933-.0724-.07344-29.007h-53.3265l.10391 14.539.10371 14.539h-33.0633l-.08237-2.305zm234.258-12.1552-13.42-14.4851-27.5886.08302-.93936.31441c-.51668.17294-1.17101.49158-1.45396.70809-.90017.68868-11.488 12.0451-22.8238 24.4808l-2.94573 3.23148-14.0816-.0959c-7.74498-.05272-14.1056-.11661-14.1346-.14202-.0288-.02538 7.69477-8.64577 17.1638-19.1559 9.4694-10.5106 17.3492-19.2595 17.5115-19.4424l.29446-.33294 20.3163.21988c11.1742.12094 20.3322.20237 20.3524.18097.0188-.02144-2.71311-2.94312-6.0717-6.49274-3.35859-3.54963-6.55135-6.9326-7.09463-7.51755l-.9883-1.0637-2.33635 2.30311-2.33646 2.30311-5.74765-.14723c-3.1611-.08105-5.79807-.19719-5.86011-.25825-.0615-.06108 4.75133-5.45147 10.696-11.9787l10.8084-11.8676h6.4919l19.345 21.241c42.8442 47.0594 47.2095 51.8622 47.2124 51.9473 0 .04908-4.7011.12874-10.4506.17698-5.74935.0483-12.2707.12557-14.4912.1718l-4.03834.084-13.4201-14.4851zm69.7789 9.3886-4.56206-5.05004v-16.6155c.00009-9.13855.0426-23.3658.0963-31.6155l.0953-14.9999h11.4324l15.9651 17.7832v17.8864c0 19.7091-.0476 18.6368.89808 20.4169.54447 1.02517 1.89025 2.37686 3.03377 3.04693.45266.26521 1.45048.6926 2.21746.94977 2.80777.94152 1.71001.90845 30.1763.90845h25.7278l3.99725 3.07205c2.1985 1.68964 4.45 3.43247 5.0031 3.87304l1.00597.80095.0794 4.40566-14.5516.09433c-8.00362.05194-28.3888.09384-45.3012.09325l-30.7497-.00097-4.56226-5.05005zm159.382-21.1106c-8.16679-1.16306-12.9671-5.68097-10.814-10.1774 1.25953-2.63048 4.61119-4.62466 9.5208-5.66494 1.29695-.2748 1.95247-.32079 4.66994-.32765 3.33061-.0089 4.26898.09266 6.64365.71553 2.7921.73242 5.11099 1.96326 6.61864 3.51318 2.41347 2.48099 2.44066 5.31544.0754 7.76394-1.81869 1.88226-4.62418 3.22056-8.31624 3.96708-1.88002.38015-6.40894.49358-8.39773.21034z"
    fill="url(#gradient)"
    stroke="white" stroke-width="1"
  />
</svg>
